{
  "accessors": [
    {
      "bufferView": 2,
      "componentType": 5126,
      "count": 65532,
      "max": [
        3.533982038497925,
        9.742555618286133,
        4.979403972625732
      ],
      "min": [
        0.015037059783935547,
        3.41788387298584,
        1.1077889204025269
      ],
      "type": "VEC3"
    },
    {
      "bufferView": 2,
      "byteOffset": 786384,
      "componentType": 5126,
      "count": 65532,
      "max": [
        0.9999990463256836,
        0.9996552467346191,
        0.9995501637458801
      ],
      "min": [
        -0.9983000159263611,
        -0.9969363212585449,
        -0.9999774694442749
      ],
      "type": "VEC3"
    },
    {
      "bufferView": 1,
      "componentType": 5126,
      "count": 65532,
      "max": [
        0.988319993019104,
        0.9961659908294678
      ],
      "min": [
        0.006701999809592962,
        0.012409999966621399
      ],
      "type": "VEC2"
    },
    {
      "bufferView": 0,
      "componentType": 5125,
      "count": 346515,
      "type": "SCALAR"
    },
    {
      "bufferView": 2,
      "byteOffset": 1572768,
      "componentType": 5126,
      "count": 65532,
      "max": [
        3.4897639751434326,
        9.714679718017578,
        3.877734899520874
      ],
      "min": [
        0.3254079818725586,
        1.7498290538787842,
        0.21869492530822754
      ],
      "type": "VEC3"
    },
    {
      "bufferView": 2,
      "byteOffset": 2359152,
      "componentType": 5126,
      "count": 65532,
      "max": [
        0.9999979734420776,
        0.9990932941436768,
        0.9995501637458801
      ],
      "min": [
        -0.9906691312789917,
        -0.9841209053993225,
        -0.999987006187439
      ],
      "type": "VEC3"
    },
    {
      "bufferView": 1,
      "byteOffset": 524256,
      "componentType": 5126,
      "count": 65532,
      "max": [
        0.983119010925293,
        0.9686430096626282
      ],
      "min": [
        0.0036090000066906214,
        0.0032649999484419823
      ],
      "type": "VEC2"
    },
    {
      "bufferView": 0,
      "byteOffset": 1386060,
      "componentType": 5125,
      "count": 337548,
      "type": "SCALAR"
    },
    {
      "bufferView": 2,
      "byteOffset": 3145536,
      "componentType": 5126,
      "count": 65532,
      "max": [
        3.444010019302368,
        9.74370002746582,
        4.725934028625488
      ],
      "min": [
        0.34549200534820557,
        0.7387762069702148,
        0.20137286186218262
      ],
      "type": "VEC3"
    },
    {
      "bufferView": 2,
      "byteOffset": 3931920,
      "componentType": 5126,
      "count": 65532,
      "max": [
        0.9999983310699463,
        0.9999502301216125,
        0.9966885447502136
      ],
      "min": [
        -0.9998595118522644,
        -0.9993389248847961,
        -0.999904215335846
      ],
      "type": "VEC3"
    },
    {
      "bufferView": 1,
      "byteOffset": 1048512,
      "componentType": 5126,
      "count": 65532,
      "max": [
        0.9840379953384399,
        0.9953160285949707
      ],
      "min": [
        0.011416999623179436,
        0.006696000229567289
      ],
      "type": "VEC2"
    },
    {
      "bufferView": 0,
      "byteOffset": 2736252,
      "componentType": 5125,
      "count": 312180,
      "type": "SCALAR"
    },
    {
      "bufferView": 2,
      "byteOffset": 4718304,
      "componentType": 5126,
      "count": 65532,
      "max": [
        3.460421085357666,
        9.73568344116211,
        4.2812299728393555
      ],
      "min": [
        0.5738580226898193,
        0.000614166259765625,
        0.0
      ],
      "type": "VEC3"
    },
    {
      "bufferView": 2,
      "byteOffset": 5504688,
      "componentType": 5126,
      "count": 65532,
      "max": [
        0.9999937415122986,
        0.9999728202819824,
        0.9999597668647766
      ],
      "min": [
        -0.9998716115951538,
        -0.9994547367095947,
        -0.9999708533287048
      ],
      "type": "VEC3"
    },
    {
      "bufferView": 1,
      "byteOffset": 1572768,
      "componentType": 5126,
      "count": 65532,
      "max": [
        0.9855809807777405,
        0.9959099888801575
      ],
      "min": [
        0.005805999971926212,
        0.004282000008970499
      ],
      "type": "VEC2"
    },
    {
      "bufferView": 0,
      "byteOffset": 3984972,
      "componentType": 5125,
      "count": 324906,
      "type": "SCALAR"
    },
    {
      "bufferView": 2,
      "byteOffset": 6291072,
      "componentType": 5126,
      "count": 65532,
      "max": [
        3.460421085357666,
        9.736538887023926,
        4.814606666564941
      ],
      "min": [
        0.0799100399017334,
        0.06985187530517578,
        0.0
      ],
      "type": "VEC3"
    },
    {
      "bufferView": 2,
      "byteOffset": 7077456,
      "componentType": 5126,
      "count": 65532,
      "max": [
        0.9999831318855286,
        0.9999728202819824,
        0.9999597668647766
      ],
      "min": [
        -0.9999945163726807,
        -0.9993588924407959,
        -0.9999880790710449
      ],
      "type": "VEC3"
    },
    {
      "bufferView": 1,
      "byteOffset": 2097024,
      "componentType": 5126,
      "count": 65532,
      "max": [
        0.9872909784317017,
        0.998432993888855
      ],
      "min": [
        0.005745999980717897,
        0.006541000213474035
      ],
      "type": "VEC2"
    },
    {
      "bufferView": 0,
      "byteOffset": 5284596,
      "componentType": 5125,
      "count": 304713,
      "type": "SCALAR"
    },
    {
      "bufferView": 2,
      "byteOffset": 7863840,
      "componentType": 5126,
      "count": 65532,
      "max": [
        3.2651591300964355,
        9.736774444580078,
        4.850671768188477
      ],
      "min": [
        0.15935003757476807,
        0.0011811256408691406,
        0.021054983139038086
      ],
      "type": "VEC3"
    },
    {
      "bufferView": 2,
      "byteOffset": 8650224,
      "componentType": 5126,
      "count": 65532,
      "max": [
        0.9999967813491821,
        0.9999932050704956,
        0.9999620914459229
      ],
      "min": [
        -0.9999926686286926,
        -0.9999622106552124,
        -0.9999241828918457
      ],
      "type": "VEC3"
    },
    {
      "bufferView": 1,
      "byteOffset": 2621280,
      "componentType": 5126,
      "count": 65532,
      "max": [
        0.9789180159568787,
        0.998835027217865
      ],
      "min": [
        0.0043230000883340836,
        0.004002000205218792
      ],
      "type": "VEC2"
    },
    {
      "bufferView": 0,
      "byteOffset": 6503448,
      "componentType": 5125,
      "count": 312168,
      "type": "SCALAR"
    },
    {
      "bufferView": 2,
      "byteOffset": 9436608,
      "componentType": 5126,
      "count": 65532,
      "max": [
        3.15885591506958,
        9.697978973388672,
        4.832965850830078
      ],
      "min": [
        0.0168609619140625,
        0.0,
        0.06389904022216797
      ],
      "type": "VEC3"
    },
    {
      "bufferView": 2,
      "byteOffset": 10222992,
      "componentType": 5126,
      "count": 65532,
      "max": [
        0.9997875690460205,
        0.9957014918327332,
        0.9999572038650513
      ],
      "min": [
        -0.9999987483024597,
        -0.9999749660491943,
        -0.9998748898506165
      ],
      "type": "VEC3"
    },
    {
      "bufferView": 1,
      "byteOffset": 3145536,
      "componentType": 5126,
      "count": 65532,
      "max": [
        0.9775699973106384,
        0.9959650039672852
      ],
      "min": [
        0.0032969999592751265,
        0.004406999796628952
      ],
      "type": "VEC2"
    },
    {
      "bufferView": 0,
      "byteOffset": 7752120,
      "componentType": 5125,
      "count": 316002,
      "type": "SCALAR"
    },
    {
      "bufferView": 2,
      "byteOffset": 11009376,
      "componentType": 5126,
      "count": 65532,
      "max": [
        2.5662930011749268,
        9.59349250793457,
        4.980897903442383
      ],
      "min": [
        0.0,
        0.047582149505615234,
        0.6430659294128418
      ],
      "type": "VEC3"
    },
    {
      "bufferView": 2,
      "byteOffset": 11795760,
      "componentType": 5126,
      "count": 65532,
      "max": [
        0.9999768137931824,
        0.9998826384544373,
        0.9999443292617798
      ],
      "min": [
        -0.9999845027923584,
        -0.9999408721923828,
        -0.9974203109741211
      ],
      "type": "VEC3"
    },
    {
      "bufferView": 1,
      "byteOffset": 3669792,
      "componentType": 5126,
      "count": 65532,
      "max": [
        0.9818829894065857,
        0.996599018573761
      ],
      "min": [
        0.006202999968081713,
        0.016597000882029533
      ],
      "type": "VEC2"
    },
    {
      "bufferView": 0,
      "byteOffset": 9016128,
      "componentType": 5125,
      "count": 324735,
      "type": "SCALAR"
    },
    {
      "bufferView": 2,
      "byteOffset": 12582144,
      "componentType": 5126,
      "count": 65532,
      "max": [
        2.8623571395874023,
        9.65078353881836,
        4.98088264465332
      ],
      "min": [
        0.022924065589904785,
        0.24479389190673828,
        0.6125569343566895
      ],
      "type": "VEC3"
    },
    {
      "bufferView": 2,
      "byteOffset": 13368528,
      "componentType": 5126,
      "count": 65532,
      "max": [
        0.999853253364563,
        0.9991122484207153,
        0.9998118877410889
      ],
      "min": [
        -0.9999926686286926,
        -0.9995167851448059,
        -0.9998247027397156
      ],
      "type": "VEC3"
    },
    {
      "bufferView": 1,
      "byteOffset": 4194048,
      "componentType": 5126,
      "count": 65532,
      "max": [
        0.9790700078010559,
        0.9995309710502625
      ],
      "min": [
        0.012881999835371971,
        0.02680400013923645
      ],
      "type": "VEC2"
    },
    {
      "bufferView": 0,
      "byteOffset": 10315068,
      "componentType": 5125,
      "count": 291183,
      "type": "SCALAR"
    },
    {
      "bufferView": 2,
      "byteOffset": 14154912,
      "componentType": 5126,
      "count": 57395,
      "max": [
        3.068480968475342,
        9.677225112915039,
        4.93771505355835
      ],
      "min": [
        0.016656041145324707,
        0.0073299407958984375,
        0.09957289695739746
      ],
      "type": "VEC3"
    },
    {
      "bufferView": 2,
      "byteOffset": 14843652,
      "componentType": 5126,
      "count": 57395,
      "max": [
        0.9999715685844421,
        0.9999713897705078,
        0.9998843669891357
      ],
      "min": [
        -0.9999905824661255,
        -0.9999087452888489,
        -0.9997245669364929
      ],
      "type": "VEC3"
    },
    {
      "bufferView": 1,
      "byteOffset": 4718304,
      "componentType": 5126,
      "count": 57395,
      "max": [
        0.9972010254859924,
        0.998537003993988
      ],
      "min": [
        0.0056420001201331615,
        0.002369999885559082
      ],
      "type": "VEC2"
    },
    {
      "bufferView": 0,
      "byteOffset": 11479800,
      "componentType": 5125,
      "count": 228660,
      "type": "SCALAR"
    }
  ],
  "asset": {
    "extras": {
      "author": "The British Museum (https://sketchfab.com/britishmuseum)",
      "license": "CC-BY-NC-SA-4.0 (http://creativecommons.org/licenses/by-nc-sa/4.0/)",
      "source": "https://sketchfab.com/3d-models/statue-of-a-woman-7649d69ce8c24e1299809475c19e203f",
      "title": "Statue of a woman"
    },
    "generator": "Sketchfab-12.65.0",
    "version": "2.0"
  },
  "bufferViews": [
    {
      "buffer": 0,
      "byteLength": 12394440,
      "name": "floatBufferViews",
      "target": 34963
    },
    {
      "buffer": 0,
      "byteLength": 5177464,
      "byteOffset": 12394440,
      "byteStride": 8,
      "name": "floatBufferViews",
      "target": 34962
    },
    {
      "buffer": 0,
      "byteLength": 15532392,
      "byteOffset": 17571904,
      "byteStride": 12,
      "name": "floatBufferViews",
      "target": 34962
    }
  ],
  "buffers": [
    {
      "byteLength": 33104296,
      "uri": "scene.bin"
    }
  ],
  "images": [
    {
      "uri": "textures/material_0_baseColor.jpeg"
    }
  ],
  "materials": [
    {
      "doubleSided": true,
      "name": "material_0",
      "pbrMetallicRoughness": {
        "baseColorTexture": {
          "index": 0
        },
        "metallicFactor": 0.0,
        "roughnessFactor": 0.6
      }
    }
  ],
  "meshes": [
    {
      "name": "Object_0",
      "primitives": [
        {
          "attributes": {
            "NORMAL": 1,
            "POSITION": 0,
            "TEXCOORD_0": 2
          },
          "indices": 3,
          "material": 0,
          "mode": 4
        }
      ]
    },
    {
      "name": "Object_1",
      "primitives": [
        {
          "attributes": {
            "NORMAL": 5,
            "POSITION": 4,
            "TEXCOORD_0": 6
          },
          "indices": 7,
          "material": 0,
          "mode": 4
        }
      ]
    },
    {
      "name": "Object_2",
      "primitives": [
        {
          "attributes": {
            "NORMAL": 9,
            "POSITION": 8,
            "TEXCOORD_0": 10
          },
          "indices": 11,
          "material": 0,
          "mode": 4
        }
      ]
    },
    {
      "name": "Object_3",
      "primitives": [
        {
          "attributes": {
            "NORMAL": 13,
            "POSITION": 12,
            "TEXCOORD_0": 14
          },
          "indices": 15,
          "material": 0,
          "mode": 4
        }
      ]
    },
    {
      "name": "Object_4",
      "primitives": [
        {
          "attributes": {
            "NORMAL": 17,
            "POSITION": 16,
            "TEXCOORD_0": 18
          },
          "indices": 19,
          "material": 0,
          "mode": 4
        }
      ]
    },
    {
      "name": "Object_5",
      "primitives": [
        {
          "attributes": {
            "NORMAL": 21,
            "POSITION": 20,
            "TEXCOORD_0": 22
          },
          "indices": 23,
          "material": 0,
          "mode": 4
        }
      ]
    },
    {
      "name": "Object_6",
      "primitives": [
        {
          "attributes": {
            "NORMAL": 25,
            "POSITION": 24,
            "TEXCOORD_0": 26
          },
          "indices": 27,
          "material": 0,
          "mode": 4
        }
      ]
    },
    {
      "name": "Object_7",
      "primitives": [
        {
          "attributes": {
            "NORMAL": 29,
            "POSITION": 28,
            "TEXCOORD_0": 30
          },
          "indices": 31,
          "material": 0,
          "mode": 4
        }
      ]
    },
    {
      "name": "Object_8",
      "primitives": [
        {
          "attributes": {
            "NORMAL": 33,
            "POSITION": 32,
            "TEXCOORD_0": 34
          },
          "indices": 35,
          "material": 0,
          "mode": 4
        }
      ]
    },
    {
      "name": "Object_9",
      "primitives": [
        {
          "attributes": {
            "NORMAL": 37,
            "POSITION": 36,
            "TEXCOORD_0": 38
          },
          "indices": 39,
          "material": 0,
          "mode": 4
        }
      ]
    }
  ],
  "nodes": [
    {
      "children": [
        1
      ],
      "matrix": [
        0.7865436673164368,
        0.04630227386951433,
        0.6157963871955872,
        0.0,
        -0.17860634624958038,
        -0.9375097155570985,
        0.29862228035926797,
        0.0,
        0.5911419987678528,
        -0.34486460685729964,
        -0.7291224598884584,
        0.0,
        1.9453336790320463e-06,
        6.951483101147462e-06,
        -1.1528665709192863e-05,
        1.0
      ],
      "name": "Sketchfab_model"
    },
    {
      "children": [
        2,
        3,
        4,
        5,
        6,
        7,
        8,
        9,
        10,
        11
      ],
      "matrix": [
        1.0,
        0.0,
        0.0,
        0.0,
        0.0,
        1.0,
        0.0,
        0.0,
        0.0,
        0.0,
        1.0,
        0.0,
        -1.7669910192489624,
        -4.87185001373291,
        -2.4904489517211914,
        1.0
      ],
      "name": "model.obj.cleaner.gles"
    },
    {
      "mesh": 0,
      "name": "Object_2"
    },
    {
      "mesh": 1,
      "name": "Object_3"
    },
    {
      "mesh": 2,
      "name": "Object_4"
    },
    {
      "mesh": 3,
      "name": "Object_5"
    },
    {
      "mesh": 4,
      "name": "Object_6"
    },
    {
      "mesh": 5,
      "name": "Object_7"
    },
    {
      "mesh": 6,
      "name": "Object_8"
    },
    {
      "mesh": 7,
      "name": "Object_9"
    },
    {
      "mesh": 8,
      "name": "Object_10"
    },
    {
      "mesh": 9,
      "name": "Object_11"
    }
  ],
  "samplers": [
    {
      "magFilter": 9729,
      "minFilter": 9987,
      "wrapS": 10497,
      "wrapT": 10497
    }
  ],
  "scene": 0,
  "scenes": [
    {
      "name": "Sketchfab_Scene",
      "nodes": [
        0
      ]
    }
  ],
  "textures": [
    {
      "sampler": 0,
      "source": 0
    }
  ]
}
